<svg xmlns="http://www.w3.org/2000/svg" width="32" height="32" viewBox="0 0 500 500">
  <circle cx="250" cy="250" r="250" fill="#006D7F"/>
  <g transform="translate(75, 75) scale(1.4)">
    <path d="M125 0C55.964 0 0 55.964 0 125c0 69.036 55.964 125 125 125s125-55.964 125-125C250 55.964 194.036 0 125 0zm0 237.5c-62.132 0-112.5-50.368-112.5-112.5S62.868 12.5 125 12.5 237.5 62.868 237.5 125 187.132 237.5 125 237.5z" fill="#E5FFFF" fill-opacity="0.2"/>
    <path d="M125 50l25 50 50 25-50 25-25 50-25-50-50-25 50-25z" fill="#7FE7FF"/>
  </g>
</svg> 